<?xml version="1.0" encoding="UTF-8" standalone="no"?>
<!-- Created with Inkscape (http://www.inkscape.org/) -->

<svg
   xmlns:dc="http://purl.org/dc/elements/1.1/"
   xmlns:cc="http://creativecommons.org/ns#"
   xmlns:rdf="http://www.w3.org/1999/02/22-rdf-syntax-ns#"
   xmlns:svg="http://www.w3.org/2000/svg"
   xmlns="http://www.w3.org/2000/svg"
   xmlns:sodipodi="http://sodipodi.sourceforge.net/DTD/sodipodi-0.dtd"
   xmlns:inkscape="http://www.inkscape.org/namespaces/inkscape"
   id="svg3075"
   version="1.1"
   inkscape:version="0.48.3.1 r9886"
   width="100"
   height="67"
   sodipodi:docname="herisson_logo.svg"
   inkscape:export-filename="/home/thibault/work/images/herisson_logo-16.png"
   inkscape:export-xdpi="16.726267"
   inkscape:export-ydpi="16.726267">
  <metadata
     id="metadata3081">
    <rdf:RDF>
      <cc:Work
         rdf:about="">
        <dc:format>image/svg+xml</dc:format>
        <dc:type
           rdf:resource="http://purl.org/dc/dcmitype/StillImage" />
        <dc:title></dc:title>
      </cc:Work>
    </rdf:RDF>
  </metadata>
  <defs
     id="defs3079" />
  <sodipodi:namedview
     pagecolor="#ffffff"
     bordercolor="#666666"
     borderopacity="1"
     objecttolerance="10"
     gridtolerance="10"
     guidetolerance="10"
     inkscape:pageopacity="0"
     inkscape:pageshadow="2"
     inkscape:window-width="1283"
     inkscape:window-height="907"
     id="namedview3077"
     showgrid="false"
     inkscape:zoom="8"
     inkscape:cx="41.600097"
     inkscape:cy="28.673344"
     inkscape:window-x="131"
     inkscape:window-y="170"
     inkscape:window-maximized="0"
     inkscape:current-layer="svg3075" />
  <path
     inkscape:connector-curvature="0"
     id="use3104"
     d="m 47.349268,61.996626 c -0.78777,-0.509094 -3.043652,-0.932209 -5.013075,-0.940245 -2.902874,-0.01188 -3.580769,-0.365501 -3.580769,-1.868009 0,-1.019368 0.429693,-2.118957 0.954869,-2.443537 1.504722,-0.929969 1.11469,-2.387174 -0.638946,-2.387174 -0.876593,0 -3.877929,-1.289079 -6.669634,-2.864618 -3.111993,-1.7563 -6.466806,-2.871304 -8.67105,-2.881914 -2.171621,-0.01044 -5.640681,-1.144757 -8.760863,-2.864618 -2.841102,-1.566017 -5.674924,-2.847312 -6.297393,-2.847312 -1.767423,0 -4.2923592,-3.273963 -4.2923592,-5.565698 0,-2.454193 2.5281222,-2.77394 5.3080102,-0.671336 2.701747,2.043497 4.458569,1.789004 8.660026,-1.254521 2.675892,-1.938402 5.111653,-5.286079 8.498387,-11.680053 5.244133,-9.900634 10.967573,-16.6011987 15.057015,-17.6275772 3.772699,-0.9468871 4.253707,0.1073985 1.298528,2.8461692 -1.395263,1.293093 -2.536842,2.66682 -2.536842,3.052749 0,0.38592 1.181644,-0.409138 2.625891,-1.766793 4.179354,-3.9287934 9.058104,-6.4752472 12.413331,-6.4790989 3.78879,-0.0045 3.886461,0.7141453 0.477435,3.5125456 L 53.555938,9.421143 57.260152,7.5801678 C 62.169004,5.1405095 68.85688,4.1907426 71.772551,5.5192122 74.900274,6.944299 74.68257,7.9243398 70.937454,9.278593 c -1.731525,0.626122 -3.987398,1.80747 -5.013074,2.625225 -1.509843,1.203765 -1.232878,1.179368 1.454848,-0.128124 4.640887,-2.257664 12.835356,-2.129513 16.02324,0.250587 4.002076,2.987972 3.762783,4.128292 -0.8821,4.203625 -2.275771,0.0369 -4.997154,0.473214 -6.047516,0.969548 -1.567853,0.740873 -1.433241,0.809476 0.751924,0.383157 3.568909,-0.696281 10.211905,1.15732 12.825566,3.578727 2.852621,2.642783 1.977873,3.587186 -3.368979,3.637214 l -4.479285,0.04194 3.589814,1.280989 c 7.509672,2.679743 8.452347,5.31863 1.900704,5.320772 l -4.535639,0.0018 3.285185,1.669545 c 4.853461,2.466495 4.852282,4.056675 -0.0027,4.056675 l -4.038487,0 2.52661,2.341583 c 3.239289,3.002074 3.300773,4.743849 0.139428,3.950401 -1.76161,-0.44213 -2.387174,-0.219027 -2.387174,0.851359 0,0.797776 -0.615278,1.450501 -1.367284,1.450501 -0.752015,0 -2.244786,1.232329 -3.317277,2.7385 -1.072501,1.50618 -3.250214,3.277077 -4.839377,3.935336 -3.271246,1.354991 -3.545385,2.468259 -1.371919,5.571315 2.311363,3.299935 1.099184,4.944202 -3.635963,4.932025 -7.373277,-0.01899 -11.249712,-1.026054 -11.249712,-2.92269 0,-0.950649 0.429693,-1.994018 0.95487,-2.318599 1.916803,-1.18465 0.880237,-2.387174 -2.057734,-2.387174 -2.858084,0 -2.931555,0.08954 -1.432314,1.746212 3.039314,3.358404 1.513146,5.913623 -3.510871,5.878139 -1.1387,-0.0081 -2.714895,-0.431151 -3.502664,-0.940246 z m 22.916923,-1.853385 c 0,-1.654283 -1.680678,-1.960351 -2.873347,-0.523277 -0.981958,1.183192 -0.839867,1.421793 0.846679,1.421793 1.114662,0 2.026668,-0.404333 2.026668,-0.898516 z M 52.45958,58.630203 c -0.431052,-1.123292 -0.861258,-1.205808 -1.879771,-0.360514 -1.773264,1.471676 -1.666981,1.817198 0.558978,1.817198 1.292589,0 1.705165,-0.455026 1.320793,-1.456684 z m 11.122506,0.558169 c 0,-1.580992 -1.393355,-1.807804 -2.663545,-0.433572 -1.022788,1.106572 -0.901548,1.332087 0.716152,1.332087 1.07107,0 1.947393,-0.404333 1.947393,-0.898515 z M 45.439528,58.233493 c 0,-1.654274 -1.680678,-1.960351 -2.873347,-0.523268 -0.981957,1.183183 -0.839866,1.421793 0.84668,1.421793 1.114671,0 2.026667,-0.404333 2.026667,-0.898525 z m 2.486644,-3.617226 c -0.970645,-0.970637 -1.771526,0.4907 -0.975136,1.779293 0.601608,0.973408 0.826521,0.974164 1.149958,0.0036 0.221142,-0.663434 0.142469,-1.465845 -0.174822,-1.783145 z m 17.263067,0.517221 c -0.304818,-0.761734 -0.53108,-0.535463 -0.576896,0.576905 -0.04149,1.006598 0.184217,1.570561 0.501517,1.25327 0.317291,-0.317299 0.351219,-1.140877 0.07541,-1.830175 z m 4.578008,-3.977102 c 4.725688,-1.424394 11.242351,-9.356343 10.410359,-12.671272 -0.345288,-1.375743 0.03213,-2.396083 1.109236,-2.998861 1.419588,-0.794438 1.305476,-0.995754 -0.874541,-1.542897 -1.378929,-0.346089 -2.507145,-1.035648 -2.507145,-1.532342 0,-1.270558 3.277734,-2.877262 5.905173,-2.894639 1.777961,-0.01179 1.930591,-0.195989 0.778932,-0.940246 -0.787769,-0.509094 -2.881222,-0.932209 -4.652109,-0.940254 -3.124124,-0.01422 -3.177436,-0.07847 -1.793981,-2.163081 0.784197,-1.181654 3.092491,-2.630382 5.129544,-3.219409 l 3.70372,-1.070943 -4.296922,-0.641053 c -2.669943,-0.39833 -6.195052,-0.136178 -9.309996,0.692349 -2.757192,0.733377 -5.013074,1.062268 -5.013074,0.730875 0,-1.760277 3.58013,-5.260665 6.901322,-6.747604 2.081024,-0.931705 3.339236,-1.968676 2.796034,-2.304397 -1.992372,-1.231358 -9.09151,0.749593 -13.628859,3.803 -4.64086,3.12307 -4.662341,3.127183 -4.662341,0.893016 0,-3.589373 0.968539,-5.202816 4.65597,-7.75619 L 67.879008,7.4562464 64.059521,8.1157205 C 59.093567,8.973145 57.476704,9.860798 52.463288,14.481994 l -4.159151,3.833769 0,-3.272685 c 0,-1.799982 0.508474,-3.781158 1.129934,-4.402619 0.621461,-0.621461 0.864417,-1.395452 0.539891,-1.71997 -0.324518,-0.324517 -2.74507,1.425753 -5.379007,3.889494 -5.034879,4.709534 -7.312738,4.925042 -6.500445,0.61499 0.458392,-2.432252 0.381393,-2.405335 -2.368843,0.828077 -4.023475,4.730359 -6.757674,10.243348 -5.473779,11.036841 0.567033,0.350444 1.509159,0.158974 2.093615,-0.425473 0.584455,-0.584464 2.061567,-1.062646 3.282476,-1.062646 2.606525,0 4.082314,3.064638 4.082314,8.477356 0,2.729843 0.679462,4.229643 2.864618,6.323149 3.617811,3.466082 3.795531,7.344848 0.477435,10.419961 -1.312946,1.216796 -2.387174,2.485357 -2.387174,2.819018 0,1.085612 25.195321,0.49268 29.102075,-0.68487 z M 40.738625,47.747009 c 1.535131,-1.53514 2.791155,-3.213253 2.791155,-3.729143 0,-0.515889 -1.503921,-2.738059 -3.342052,-4.938154 -2.693297,-3.223675 -3.342043,-4.8058 -3.342043,-8.1504 0,-4.867599 -1.653977,-6.44869 -3.63105,-3.47104 -1.479749,2.228605 -3.626099,2.740777 -4.2052,1.003457 -0.196033,-0.588091 -1.592907,0.593554 -3.104163,2.6259 -3.694117,4.967844 -7.006201,7.693655 -11.021632,9.070703 l -3.342053,1.146115 5.729227,2.704141 c 3.151077,1.487282 7.105509,2.705482 8.787636,2.70712 4.263418,0.0045 7.922617,-1.859082 7.922617,-4.034123 0,-1.44736 0.440672,-1.685366 2.148465,-1.160415 3.793335,1.166013 3.814034,1.120449 -2.6259,5.779479 -1.641063,1.187242 -1.708234,1.510113 -0.477435,2.294948 2.493025,1.589713 4.835616,1.028215 7.712428,-1.848588 z M 25.791349,34.936058 c -0.618113,-1.610761 0.168972,-3.49532 1.459806,-3.49532 1.50385,0 1.841443,2.725478 0.477786,3.857221 -1.075929,0.892936 -1.485419,0.816459 -1.937592,-0.361901 z m 6.279979,-1.108137 c 0,-1.61267 0.437648,-2.400448 1.193587,-2.148457 0.656468,0.21882 1.193587,1.185623 1.193587,2.148457 0,0.962825 -0.537119,1.929636 -1.193587,2.148456 -0.755939,0.251983 -1.193587,-0.535787 -1.193587,-2.148456 z"
     style="color:#000000;fill:#3b842b;fill-opacity:1;fill-rule:nonzero;stroke-width:1;stroke-linecap:butt;stroke-linejoin:miter;stroke-miterlimit:4;stroke-opacity:1;stroke-dasharray:none;stroke-dashoffset:0;marker:none;visibility:visible;display:inline;overflow:visible;enable-background:accumulate" />
</svg>
